<svg width="24" height="24" viewBox="0 0 24 24" fill="none" xmlns="http://www.w3.org/2000/svg">
<path d="M2 15.29V5.70999C2 4.37999 2.77 4.05999 3.71 4.99999L6.3 7.58999C6.69 7.97999 7.33 7.97999 7.71 7.58999L11.29 3.99999C11.3825 3.90729 11.4924 3.83374 11.6134 3.78356C11.7343 3.73338 11.864 3.70755 11.995 3.70755C12.126 3.70755 12.2557 3.73338 12.3766 3.78356C12.4976 3.83374 12.6075 3.90729 12.7 3.99999L16.29 7.58999C16.68 7.97999 17.32 7.97999 17.7 7.58999L20.29 4.99999C21.23 4.05999 22 4.37999 22 5.70999V15.3C22 18.3 20 20.3 17 20.3H7C4.24 20.29 2 18.05 2 15.29Z" stroke="black" stroke-width="1.5" stroke-linecap="round" stroke-linejoin="round"/>
</svg>
